<?xml version="1.0" encoding="UTF-8" standalone="no"?>
<!-- Created with Inkscape (http://www.inkscape.org/) -->

<svg
   version="1.1"
   id="svg2"
   width="624.82666"
   height="672.96002"
   viewBox="0 0 624.82666 672.96002"
   sodipodi:docname="C_RGB.eps"
   xmlns:inkscape="http://www.inkscape.org/namespaces/inkscape"
   xmlns:sodipodi="http://sodipodi.sourceforge.net/DTD/sodipodi-0.dtd"
   xmlns="http://www.w3.org/2000/svg"
   xmlns:svg="http://www.w3.org/2000/svg">
  <defs
     id="defs6" />
  <sodipodi:namedview
     id="namedview4"
     pagecolor="#ffffff"
     bordercolor="#000000"
     borderopacity="0.25"
     inkscape:showpageshadow="2"
     inkscape:pageopacity="0.0"
     inkscape:pagecheckerboard="0"
     inkscape:deskcolor="#d1d1d1" />
  <g
     id="g8"
     inkscape:groupmode="layer"
     inkscape:label="ink_ext_XXXXXX"
     transform="matrix(1.3333333,0,0,-1.3333333,0,672.96)">
    <g
       id="g10"
       transform="scale(0.1)">
      <path
         d="m 4508.52,1074.14 c -7.77,-2.44 -15.3,-5.61 -22.27,-10 l -918.77,1027.44 928.68,-268.1 c 3.96,-30.63 22.22,-56.48 48.07,-70.91 z m -49.74,-36.28 -1027.82,518.71 c 7.74,13.8 12.52,29.49 12.52,46.44 0,34.59 -18.54,64.62 -46.05,81.4 l 104.31,372.54 c 14.09,1.92 27.23,6.65 38.67,14.02 l 920.98,-1029.94 c -0.84,-1.09 -1.82,-2.02 -2.61,-3.17 z M 3968.63,549.191 c -14.35,8.598 -30.94,13.848 -48.88,13.848 -6.69,0 -13.2,-0.719 -19.5,-2.019 l -511.69,955.78 c 7.32,3.46 13.99,7.89 20.14,13.01 l 1036.15,-522.92 c -4.95,-19.441 -3.84,-39.718 3.28,-58.101 z m -102.87,-2.921 -1097.85,939.61 c 6.07,7.93 10.85,16.78 14.22,26.38 l 489.37,33.75 c 17.43,-23.31 45.01,-38.61 76.37,-38.61 2.36,0 4.58,0.52 6.89,0.69 l 513.99,-960.051 c -0.98,-0.617 -2.03,-1.117 -2.99,-1.769 z m -33.31,-40.149 H 2835.7 c -10.37,37.32 -42.56,65.149 -82.12,69.16 l -55.16,873.439 c 16.2,1.06 31.27,5.95 44.27,14.09 L 3841.62,522.27 c -3.56,-5.04 -6.63,-10.45 -9.17,-16.149 z M 3566.27,193.98 c -11.16,4.551 -23.3,7.161 -36.1,7.161 -43.19,0 -79.26,-28.832 -91.13,-68.149 h -979.48 c -3.55,8.328 -8.55,15.77 -14.18,22.688 l 250.24,242.871 c 14.23,-8.391 30.62,-13.531 48.33,-13.531 34.48,0 64.45,18.421 81.27,45.8 h 1006.23 c 0.04,-0.078 0.05,-0.168 0.08,-0.25 z M 2419.56,177.859 c -14.16,8.289 -30.43,13.383 -48.03,13.383 -23.08,0 -43.96,-8.512 -60.48,-22.121 L 623.094,1211.06 c 3.121,9.44 5.222,19.35 5.222,29.83 0,27 -11.289,51.28 -29.285,68.67 l 156.606,251.93 c 8.043,-2.19 16.343,-3.74 25.082,-3.74 19.156,0 36.914,5.76 51.875,15.47 L 2648.42,481.582 c 0,-0.32 -0.08,-0.621 -0.08,-0.953 0,-22.758 8.28,-43.387 21.56,-59.797 z M 570.855,1328.49 c -9.246,4.03 -19.343,6.26 -29.835,7.18 L 142.613,3102.96 c 28.903,16.45 48.625,47.17 48.625,82.8 0,29.22 -13.39,55.06 -34.047,72.6 l 123.731,309.31 446.144,-1835.18 c -25.316,-17.2 -41.964,-46.21 -41.964,-79.13 0,-31.85 15.734,-59.87 39.683,-77.24 z M 386.977,3645.43 1578.26,3303.68 c 0,-0.15 -0.04,-0.29 -0.04,-0.44 0,-30.24 14.32,-56.88 36.24,-74.4 L 819.41,1740.67 c -5.828,2.59 -11.941,4.64 -18.32,6.03 L 348.137,3609.98 c 16.058,8.01 29.492,20.24 38.84,35.45 z m 391.886,950 c 0.274,0 0.528,-0.08 0.797,-0.08 34.66,0 64.727,18.62 81.5,46.22 l 873.83,-434.71 c -6.83,-14.4 -9.7,-29.93 -8.97,-45.34 L 389.586,3740.26 c -5.336,9.92 -12.234,18.75 -20.586,26.17 z m 95.957,91 601.52,197.52 c 17.3,-17.29 41.19,-27.99 67.58,-27.99 4.59,0 8.99,0.73 13.41,1.35 l 210.4,-612.52 c -4.4,-2.99 -8.54,-6.34 -12.48,-10.12 l -881.746,438.65 c 0.797,4.26 1.109,8.67 1.316,13.11 z m 731.73,193.42 778.79,-569.84 c -2.91,-5.58 -5.25,-11.43 -7.02,-17.59 l -481.67,-68.04 c -4.46,5.75 -9.44,11.21 -15.34,15.99 -24.04,19.44 -54.56,24.95 -82.47,18.25 l -209.33,609.4 c 6.13,3.35 11.83,7.27 17.04,11.83 z m 836.65,-139.22 c 5.37,-28.81 23.75,-52.74 48.71,-66.22 l -28.49,-313.33 c -22.05,-1.49 -41.94,-10.28 -57.38,-24.19 l -752.54,550.63 z m 81.81,-76.83 c 3.98,-0.5 7.92,-1.21 12.04,-1.21 9.03,0 17.6,1.65 25.88,3.99 l 430.48,-641.33 -428.63,234.5 c 0.15,2.13 0.65,4.18 0.65,6.35 0,43.24 -28.9,79.36 -68.28,91.17 z m 992.37,-536.31 c 0,-0.2 -0.06,-0.38 -0.06,-0.58 0,-5.77 0.71,-11.34 1.69,-16.83 l -365.93,-124.56 c -17.3,24.56 -45.76,40.7 -78.08,40.7 -12.94,0 -25.25,-2.63 -36.51,-7.29 l -438.48,653.27 z m 39.04,-77.35 -213.01,-536.81 c -3.34,0.35 -6.6,1.01 -10.04,1.01 -7.01,0 -13.8,-0.85 -20.37,-2.29 l -166.49,355.67 c 14.82,16.84 24.1,38.69 24.1,62.88 0,8.31 -1.38,16.23 -3.38,23.92 l 363.76,123.82 c 6.56,-11.03 15.14,-20.61 25.43,-28.2 z m 56.52,-18.85 c 1.87,0 3.62,0.45 5.48,0.55 l 582.57,-840.43 -772.28,224.51 c 0.02,0.95 0.28,1.84 0.28,2.8 0,37.35 -21.63,69.36 -52.85,85.09 l 210.89,531.48 c 8.29,-2.35 16.86,-4 25.91,-4 z m 345.9,-1233.74 c -10.06,3.6 -20.75,5.91 -32.06,5.91 -28.64,0 -54.04,-12.86 -71.57,-32.81 l -757.16,240.1 c -2.08,20.73 -10.55,39.41 -23.73,54.08 l 211.21,271.55 c 14.13,-8.22 30.32,-13.28 47.84,-13.28 24.08,0 45.82,9.2 62.62,23.89 l 790.78,-229.85 c 1.46,-14.53 6.5,-28.04 13.86,-40.06 z m -955.45,299.32 c -2.47,0 -4.79,-0.54 -7.21,-0.72 l -171.79,327.94 c 9.5,14.85 15.18,32.39 15.18,51.33 0,23.53 -8.82,44.8 -22.92,61.45 l 212.07,310.55 c 13.77,-7.68 29.39,-12.43 46.28,-12.43 1.21,0 2.33,0.31 3.54,0.36 l 172.56,-368.66 c -8.27,-14.15 -13.35,-30.4 -13.35,-47.97 0,-22.98 8.45,-43.79 21.96,-60.28 l -212.2,-272.83 c -13.25,6.95 -28.12,11.26 -44.12,11.26 z m -259.44,474.17 c -19.09,0 -36.78,-5.74 -51.71,-15.38 l -349.96,202.23 c 0.19,2.42 0.73,4.73 0.73,7.2 0,33.87 -17.72,63.45 -44.29,80.44 l 148.99,327.77 c 7.12,-1.69 14.46,-2.81 22.1,-2.81 23.16,0 44.1,8.56 60.65,22.26 l 450.49,-246.51 c -0.85,-5.12 -1.58,-10.28 -1.58,-15.64 0,-23.58 8.87,-44.89 23.03,-61.57 l -212.03,-310.49 c -13.8,7.72 -29.47,12.5 -46.42,12.5 z m -496.56,289.66 c -37.38,0 -69.4,-21.65 -85.13,-52.91 h -359.89 l 49.63,267.98 c 16.5,5.62 31.74,15.57 43.51,30.12 10.9,13.48 17.13,29.08 19.67,45.06 l 472.57,66.79 c 7.29,-12.33 16.94,-23.06 28.79,-31.03 l -149.16,-328.17 c -6.46,1.38 -13.12,2.16 -19.99,2.16 z M 1649.4,3395.32 c -29.84,-7.92 -53.86,-29.68 -64.71,-58.21 L 399.504,3677.12 c 1.129,5.88 1.824,11.92 1.824,18.14 0,4.35 -0.715,8.51 -1.281,12.72 l 1333.693,420.39 c 5.93,-13.81 14.79,-26.57 27.29,-36.67 4.89,-3.97 10.09,-7.28 15.45,-10.13 z m 151.54,-1235.96 c -24.14,-17.36 -40.01,-45.51 -40.01,-77.52 0,-4.95 0.74,-9.71 1.47,-14.46 L 866.145,1695.53 c -4.79,9.66 -10.883,18.54 -18.5,26.02 l 795.975,1489.89 z m 82.2,-168.92 L 2677.99,551.691 874.578,1635.84 c 1.055,5.7 1.762,11.52 1.762,17.52 0,3.18 -0.629,6.18 -0.934,9.29 l 898.124,372.63 c 16.38,-29.13 47.22,-49.06 83.03,-49.06 9.29,0 18.1,1.75 26.58,4.22 z m 714.01,-441.35 c -0.1,-1.82 -0.54,-3.53 -0.54,-5.38 0,-42.97 28.53,-78.9 67.56,-90.94 l 55.57,-880 c -4.24,-1.11 -8.51,-2.211 -12.51,-3.868 L 1919.59,1994.63 Z m 509.78,181.38 c 37.02,13.19 63.68,48.2 63.68,89.74 0,12.68 -2.59,24.72 -7.06,35.78 l 263.04,223.19 c 0.84,-0.71 1.7,-1.41 2.56,-2.1 l -107.07,-382.41 c -34.77,-9.79 -61.51,-38.4 -68.1,-74.39 l -162.52,-11.2 z m 1579.23,105.26 c 0,52.81 -42.81,95.62 -95.62,95.62 -29.88,0 -56.23,-13.99 -73.76,-35.46 l -933.79,269.57 c -6.92,46.02 -46.25,81.41 -94.19,81.41 -52.82,0 -95.62,-42.8 -95.62,-95.61 0,-0.54 0.15,-1.03 0.16,-1.56 l -283.59,-240.61 c -10.8,4.22 -22.46,6.74 -34.75,6.74 -52.82,0 -95.63,-42.8 -95.63,-95.62 0,-37.13 21.39,-68.96 52.32,-84.79 l -16.8,-131.62 -238.06,-16.41 c -15.91,30.72 -47.62,51.94 -84.61,51.94 -23.31,0 -44.38,-8.67 -60.97,-22.53 l -680.82,447.66 c 1.03,5.66 1.74,11.43 1.74,17.38 0,46.62 -33.38,85.34 -77.53,93.8 l -156.05,1043.59 c 30.13,16.1 50.86,47.47 50.86,84.01 0,34.37 -18.28,64.25 -45.5,81.1 l 64.47,348.14 h 369.43 c 13.38,-36.68 48.23,-63.01 89.54,-63.01 22.81,0 43.48,8.32 59.91,21.65 l 342.81,-198.06 c -1.07,-5.73 -1.77,-11.6 -1.77,-17.64 0,-52.8 42.8,-95.62 95.61,-95.62 6.07,0 11.97,0.71 17.72,1.79 l 167.81,-320.36 c -13.37,-16.45 -21.71,-37.13 -21.71,-59.98 0,-52.8 42.81,-95.62 95.62,-95.62 28.87,0 54.44,13.07 71.97,33.3 l 756.7,-239.91 c 4.52,-48.61 44.94,-86.8 94.72,-86.8 52.82,0 95.63,42.81 95.63,95.62 0,13.74 -3.02,26.72 -8.23,38.54 l 248.39,287.22 c 3.06,-0.64 5.99,-1.59 9.18,-1.93 52.51,-5.6 99.61,32.43 105.22,84.94 5.61,52.51 -32.42,99.62 -84.93,105.22 -6.95,0.74 -13.76,0.62 -20.43,-0.09 l -585.39,844.43 c 13.74,16.55 22.33,37.54 22.33,60.74 0,52.8 -42.8,95.62 -95.61,95.62 -25.11,0 -47.77,-9.89 -64.83,-25.71 l -917.14,544.56 c 0.98,5.48 1.7,11.07 1.7,16.83 0,52.81 -42.81,95.62 -95.62,95.62 -32.74,0 -61.57,-16.5 -78.81,-41.58 l -820.23,154.55 c -7.33,45.53 -46.49,80.4 -94.09,80.4 -51.94,0 -93.99,-41.47 -95.36,-93.08 L 848.52,4757.07 c -17.399,18.13 -41.75,29.52 -68.86,29.52 -52.808,0 -95.613,-42.81 -95.613,-95.63 0,-25.19 9.941,-47.94 25.871,-65.02 L 296.613,3789.96 c -48.472,-4.65 -86.519,-45.01 -86.519,-94.7 0,-20.96 6.937,-40.19 18.375,-55.94 L 84.8711,3280.3 c -47.6797,-5.41 -84.86719375,-45.41 -84.86719375,-94.54 0,-42.86 28.38279375,-78.7 67.23439375,-90.84 L 469.199,1311.9 c -19.566,-17.51 -32.121,-42.68 -32.121,-71.01 0,-52.81 42.813,-95.61 95.617,-95.61 14.114,0 27.407,3.23 39.461,8.72 L 2276.54,101.902 c -0.14,-2.1207 -0.62,-4.1325 -0.62,-6.2809 0,-52.8125 42.8,-95.6093812 95.61,-95.6093812 39.32,0 73.02,23.7577812 87.72,57.6679812 h 988.59 c 16.56,-28.4375 47.04,-47.78126 82.33,-47.78126 52.82,0 95.63,42.81246 95.63,95.63256 0,12.258 -2.52,23.899 -6.73,34.668 l 266.89,238.043 c 10.54,-3.992 21.85,-6.441 33.79,-6.441 52.81,0 95.62,42.808 95.62,95.621 0,7.129 -0.91,14.027 -2.39,20.719 l 488,406.679 c 41.19,-16.871 89.92,-3.07 115.63,35.36 29.36,43.902 17.59,103.28 -26.3,132.65 -2.17,1.45 -4.52,2.34 -6.76,3.59 l 35.71,678.57 c 38.68,12.25 66.9,48.01 66.9,90.74"
         style="fill:#4451a9;fill-opacity:1;fill-rule:nonzero;stroke:none"
         id="path12" />
    </g>
  </g>
</svg>
